<svg width="16" height="32" viewBox="0 0 16 32" fill="none" xmlns="http://www.w3.org/2000/svg">
<path d="M3.22284 12.4613C3.64135 12.7738 4.08077 13.0461 4.49928 13.2981C4.05985 12.9856 3.64135 12.7033 3.22284 12.4613Z" fill="#FFB931"/>
<path d="M4.43652 12.0177C4.85502 12.3202 5.27353 12.5924 5.69204 12.8243C5.27353 12.5319 4.85502 12.2597 4.43652 12.0177ZM3.22284 17.9358C3.64135 18.2483 4.08077 18.5205 4.49928 18.7726C4.05985 18.45 3.64135 18.1778 3.22284 17.9358Z" fill="#FFB931"/>
<path d="M4.43652 17.4821C4.85503 17.7845 5.27354 18.0567 5.69204 18.2987C5.27354 17.9962 4.85503 17.724 4.43652 17.4821Z" fill="#FFB931"/>
<path d="M10.191 12.8343C10.6095 12.5923 11.0489 12.3201 11.4674 12.0076C11.0489 12.2495 10.6304 12.5318 10.191 12.8343Z" fill="#FFB931"/>
<path d="M15.5269 10.8683L15.2549 10.344L14.7527 10.5255C14.7527 10.5154 14.7527 10.5154 14.7736 10.5054C16.7824 7.84373 15.5897 5.50473 15.5478 5.40391L15.2758 4.87965L14.3551 5.19219C14.2505 5.22243 12.8485 5.71645 11.3 6.65406C11.4255 6.25079 11.4883 5.81726 11.4883 5.36358C11.4883 2.53056 8.70525 0.52426 8.60062 0.443604L7.97286 0L7.3451 0.443604C7.21955 0.52426 4.45743 2.52048 4.45743 5.36358C4.45743 5.81726 4.52021 6.25079 4.64576 6.66415C3.09729 5.72653 1.69527 5.2426 1.59064 5.20227L0.669951 4.88973L0.397912 5.41399C0.356061 5.51481 -0.857617 7.84373 1.17214 10.5154C1.17214 10.5255 1.19308 10.5255 1.19308 10.5356L0.690871 10.3642L0.418832 10.8885C0.376981 10.9893 -0.836671 13.3182 1.19308 15.9899C1.19308 16 1.214 16 1.214 16.0101L0.711791 15.8387L0.439752 16.3629C0.397901 16.4638 -0.815751 18.7927 1.214 21.4644C3.01358 23.8538 6.44534 25.2451 7.26142 25.5476V29.1065C6.04776 27.695 3.89243 26.2735 0.230499 26.2735V27.0095C6.00588 27.0095 7.2405 31.9496 7.26142 32L8.78896 31.9597V25.5375C9.60504 25.235 13.0159 23.8437 14.8364 21.4543C16.8452 18.7927 15.6525 16.4537 15.6106 16.3529L15.3386 15.8286L14.8364 16C14.8364 15.9899 14.8364 15.9899 14.8573 15.9798C16.7824 13.298 15.5897 10.9691 15.5269 10.8683ZM7.05217 24.4789C5.77573 23.8841 3.76689 22.765 2.57415 21.1821C1.31863 19.5085 1.42326 17.9559 1.63251 17.1292C2.07194 17.3207 2.59508 17.5829 3.18099 17.9156L3.20191 17.9256C3.62041 18.1676 4.05984 18.4499 4.47835 18.7624C5.16888 19.2565 5.81758 19.8513 6.31978 20.5167C6.73829 21.0611 6.98939 21.5955 7.1568 22.0895C6.88477 23.0573 6.94754 23.8941 7.05217 24.4789ZM7.17772 16.6352C6.88476 17.5929 6.94754 18.4297 7.07309 19.0145C6.67551 18.833 6.21515 18.591 5.71294 18.3088C5.29444 18.0668 4.87593 17.8047 4.45743 17.4921C3.76689 16.988 3.1182 16.4033 2.59507 15.7278C1.33955 14.0542 1.44418 12.5016 1.65343 11.6749C2.09286 11.8664 2.616 12.1285 3.20191 12.4612L3.22283 12.4713C3.64133 12.7133 4.08076 12.9956 4.49927 13.3081C4.49927 13.3081 4.49927 13.3081 4.49927 13.3182C5.16888 13.8122 5.81757 14.397 6.3407 15.0725C6.73829 15.6068 7.01031 16.1311 7.17772 16.6352ZM7.05217 13.54C6.65459 13.3585 6.19423 13.1166 5.69203 12.8343C5.27352 12.6024 4.85501 12.3302 4.43651 12.0277C3.74597 11.5236 3.09728 10.9389 2.57415 10.2634C1.31863 8.58979 1.42326 7.03718 1.63251 6.21046C2.88803 6.77505 5.04334 7.92439 6.31978 9.60806C6.73829 10.1525 6.98939 10.6868 7.1568 11.1808C6.88477 12.1185 6.94754 12.9553 7.05217 13.54ZM5.96404 5.3535C5.96404 3.569 7.17771 2.12728 7.95194 1.3913C8.72618 2.12728 9.93985 3.569 9.93985 5.3535C9.93985 7.12791 8.72618 8.57971 7.95194 9.31569C7.17771 8.57971 5.96404 7.138 5.96404 5.3535ZM13.3298 21.1821C12.137 22.765 10.1282 23.8841 8.85174 24.4789C8.80989 24.4991 8.76805 24.5192 8.72619 24.5394C8.70527 24.5495 8.66341 24.5696 8.64249 24.5797C8.57971 24.3176 8.51694 23.995 8.51694 23.6118C8.49602 23.1682 8.55879 22.6541 8.74712 22.0996C8.91452 21.6055 9.16562 21.0712 9.58413 20.5268C10.0863 19.8513 10.7559 19.2665 11.4255 18.7624C11.844 18.4499 12.2835 18.1777 12.702 17.9357C13.2879 17.603 13.832 17.3308 14.2714 17.1393C14.4597 17.9559 14.5853 19.5186 13.3298 21.1821ZM13.3298 15.7177C12.8276 16.3932 12.1579 16.9779 11.4883 17.482C11.0698 17.7845 10.6513 18.0567 10.2328 18.2987L10.2119 18.3088C9.7306 18.591 9.24932 18.833 8.85174 19.0145C8.76804 19.0548 8.70526 19.0851 8.64249 19.1153C8.49601 18.5608 8.41231 17.6736 8.74712 16.6452C8.91452 16.1512 9.16562 15.6169 9.58413 15.0725C10.0863 14.397 10.7559 13.8122 11.4255 13.3081C11.844 12.9956 12.2835 12.7234 12.702 12.4814C13.2879 12.1487 13.832 11.8765 14.2714 11.6849C14.4597 12.4915 14.5853 14.0441 13.3298 15.7177ZM13.3298 10.2432C12.8276 10.9187 12.1579 11.5035 11.4883 12.0076C11.0698 12.3201 10.6304 12.5923 10.2119 12.8343C9.7306 13.1166 9.24932 13.3585 8.85174 13.54C8.76804 13.5803 8.70526 13.6106 8.64249 13.6408C8.49601 13.0863 8.41231 12.1991 8.74712 11.1607C8.91452 10.6667 9.16562 10.1323 9.58413 9.5879C10.8396 7.9143 13.0159 6.76497 14.2714 6.1903C14.4597 7.01701 14.5853 8.57971 13.3298 10.2432Z" fill="#FFB931"/>
</svg>
